<svg width="118" height="152" viewBox="0 0 118 152" fill="none" xmlns="http://www.w3.org/2000/svg">
<path d="M108.406 5.14508C108.076 2.96071 109.579 0.922516 111.763 0.592653C113.948 0.26279 115.986 1.76618 116.316 3.95056L108.406 5.14508ZM32.3281 150.828C30.766 152.39 28.2333 152.39 26.6712 150.828L1.21541 125.372C-0.346684 123.81 -0.346678 121.278 1.21542 119.716C2.77752 118.153 5.31018 118.153 6.87228 119.716L29.4997 142.343L52.1271 119.716C53.6892 118.154 56.2219 118.154 57.784 119.716C59.3461 121.278 59.3461 123.81 57.784 125.373L32.3281 150.828ZM116.316 3.95056C119.116 22.4918 115.11 34.0089 106.713 42.3034C102.681 46.2866 97.8046 49.3555 92.7272 52.1127C90.1812 53.4953 87.5273 54.8292 84.8683 56.1617C82.1916 57.5031 79.5038 58.8462 76.8005 60.2863C66.0384 66.0195 55.3905 73.1119 47.3298 85.9412C39.2501 98.8008 33.4997 117.867 33.4997 148L25.4997 148C25.4997 116.883 31.4368 96.1991 40.5559 81.6852C49.694 67.141 61.7562 59.2364 73.0392 53.2257C75.8472 51.7297 78.6291 50.3401 81.284 49.0096C83.9568 47.6702 86.4964 46.3928 88.9094 45.0825C93.7501 42.4538 97.8539 39.8095 101.091 36.6119C107.233 30.5449 110.925 21.8299 108.406 5.14508L116.316 3.95056Z" fill="#C4C4C4"/>
</svg>
