<svg width="135" height="103" viewBox="0 0 135 103" fill="none" xmlns="http://www.w3.org/2000/svg">
<path d="M2.70847 7.78576C0.617661 7.07247 -0.499046 4.79929 0.214241 2.70848C0.927528 0.61766 3.20071 -0.499047 5.29153 0.214242L2.70847 7.78576ZM122.278 99.8151C121.551 101.901 119.271 103.004 117.185 102.278L83.1861 90.442C81.0998 89.7157 79.9973 87.4356 80.7236 85.3493C81.4499 83.2629 83.73 82.1604 85.8163 82.8867L116.037 93.4073L126.558 63.1861C127.284 61.0998 129.564 59.9973 131.651 60.7236C133.737 61.4499 134.84 63.73 134.113 65.8163L122.278 99.8151ZM5.29153 0.214242C37.7182 11.2767 60.6266 22.1604 78.6131 37.0254C96.6527 51.9344 109.457 70.6108 122.101 96.7587L114.899 100.241C102.534 74.6695 90.3461 57.1008 73.5167 43.192C56.6343 29.2394 34.7971 18.7329 2.70847 7.78576L5.29153 0.214242Z" fill="#C4C4C4"/>
</svg>
