<svg width="135" height="103" viewBox="0 0 135 103" fill="none" xmlns="http://www.w3.org/2000/svg">
<path d="M131.792 7.78576C133.882 7.07247 134.999 4.79929 134.286 2.70848C133.572 0.61766 131.299 -0.499047 129.208 0.214242L131.792 7.78576ZM12.2224 99.8151C12.9487 101.901 15.2287 103.004 17.3151 102.278L51.3139 90.442C53.4002 89.7157 54.5027 87.4356 53.7764 85.3493C53.0501 83.2629 50.77 82.1604 48.6837 82.8867L18.4626 93.4073L7.94199 63.1861C7.21569 61.0998 4.93561 59.9973 2.84927 60.7236C0.762938 61.4499 -0.339592 63.73 0.386703 65.8163L12.2224 99.8151ZM129.208 0.214242C96.7818 11.2767 73.8734 22.1604 55.8869 37.0254C37.8473 51.9344 25.0426 70.6108 12.3989 96.7587L19.6011 100.241C31.9663 74.6695 44.1539 57.1008 60.9833 43.192C77.8657 29.2394 99.7029 18.7329 131.792 7.78576L129.208 0.214242Z" fill="#C4C4C4"/>
</svg>
