<svg width="911" height="203" viewBox="0 0 911 203" fill="none" xmlns="http://www.w3.org/2000/svg">
<path d="M155.487 19.2669C227.947 -11.8301 332.762 -0.384671 378.967 19.2669C425.173 27.689 511.495 39.4798 577.95 19.2669C661.02 -5.99939 845.896 38.4522 879.424 63.7184C912.952 88.9846 923.413 119.433 892.888 140.164C862.363 160.896 779.794 178.388 754.272 178.388C733.855 178.388 726.749 202.358 584.631 202.358H346.932C296.39 204.95 169.584 201.063 66.6985 164.783C-36.1874 128.503 2.4782 75.8109 34.6717 53.9999C95.7227 17.7201 83.0262 50.3638 155.487 19.2669Z" fill="url(#paint0_linear_389_385)"/>
<defs>
<linearGradient id="paint0_linear_389_385" x1="85.7143" y1="55.9434" x2="880.83" y2="97.3784" gradientUnits="userSpaceOnUse">
<stop stop-color="#FFDAF2"/>
<stop offset="1" stop-color="#FFF8B8"/>
</linearGradient>
</defs>
</svg>
